<svg width="66" height="13" viewBox="0 0 66 13" fill="none" xmlns="http://www.w3.org/2000/svg">
<path d="M1.71006 7.13251V12.3075C1.71006 12.4425 1.65006 12.51 1.53006 12.51H0.180059C0.0600585 12.51 5.85616e-05 12.4425 5.85616e-05 12.3075V0.20251C5.85616e-05 0.06751 0.0600585 9.89437e-06 0.180059 9.89437e-06H0.337559C1.25256 9.89437e-06 1.71006 0.53251 1.71006 1.59751V5.53501H7.24506V0.20251C7.24506 0.06751 7.30506 9.89437e-06 7.42506 9.89437e-06H7.58256C8.49756 9.89437e-06 8.95506 0.53251 8.95506 1.59751V12.3075C8.95506 12.4425 8.89506 12.51 8.77506 12.51H7.42506C7.30506 12.51 7.24506 12.4425 7.24506 12.3075V7.13251H1.71006ZM15.2178 12.735C14.0778 12.735 13.1928 12.42 12.5628 11.79C11.8728 11.085 11.5278 10.035 11.5278 8.64001V4.43251C11.5278 4.29751 11.5878 4.23001 11.7078 4.23001H11.8203C12.7353 4.23001 13.1928 4.74751 13.1928 5.78251V8.82001C13.1928 9.58501 13.3653 10.17 13.7103 10.575C14.0703 10.98 14.5728 11.1825 15.2178 11.1825C16.5678 11.1825 17.2428 10.4175 17.2428 8.88751V4.43251C17.2428 4.29751 17.3028 4.23001 17.4228 4.23001H17.5353C18.4653 4.23001 18.9303 4.74751 18.9303 5.78251V8.75251C18.9303 9.92251 18.6603 10.8525 18.1203 11.5425C17.4753 12.3375 16.5078 12.735 15.2178 12.735ZM22.5029 8.97751C22.6679 10.4925 23.5829 11.25 25.2479 11.25C26.1629 11.25 27.0104 10.9725 27.7904 10.4175C27.8204 10.4025 27.8579 10.3725 27.9029 10.3275C27.9929 10.2675 28.0604 10.2375 28.1054 10.2375C28.2554 10.2375 28.3304 10.3425 28.3304 10.5525C28.3304 11.0475 28.0904 11.4975 27.6104 11.9025C26.9804 12.4425 26.1254 12.7125 25.0454 12.7125C23.9504 12.7125 23.0279 12.4125 22.2779 11.8125C21.3179 11.0325 20.8379 9.88501 20.8379 8.37001C20.8379 7.18501 21.1529 6.20251 21.7829 5.42251C22.5329 4.49251 23.5304 4.02751 24.7754 4.02751C25.9304 4.02751 26.8304 4.37251 27.4754 5.06251C28.1354 5.75251 28.4654 6.67501 28.4654 7.83001C28.4654 8.13001 28.4504 8.42251 28.4204 8.70751C28.3904 8.88751 28.2779 8.97751 28.0829 8.97751H22.5029ZM22.5479 7.69501H26.8004C26.8304 7.02001 26.6654 6.48751 26.3054 6.09751C25.9454 5.70751 25.4279 5.51251 24.7529 5.51251C24.1229 5.51251 23.6129 5.70751 23.2229 6.09751C22.8329 6.47251 22.6079 7.00501 22.5479 7.69501ZM32.419 7.13251V12.3075C32.419 12.4425 32.359 12.51 32.239 12.51H30.889C30.769 12.51 30.709 12.4425 30.709 12.3075V0.20251C30.709 0.06751 30.769 9.89437e-06 30.889 9.89437e-06H36.649C37.324 9.89437e-06 37.6615 0.32251 37.6615 0.96751V1.35001C37.6615 1.51501 37.579 1.59751 37.414 1.59751H32.419V5.53501H36.199C36.874 5.53501 37.2115 5.86501 37.2115 6.52501V6.86251C37.2115 7.04251 37.1215 7.13251 36.9415 7.13251H32.419ZM41.4612 12.7125C40.0662 12.7125 39.3687 11.85 39.3687 10.125V0.20251C39.3687 0.06751 39.4287 9.89437e-06 39.5487 9.89437e-06H39.6612C40.5762 9.89437e-06 41.0337 0.51751 41.0337 1.55251V10.0125C41.0337 10.7925 41.3262 11.1825 41.9112 11.1825C42.3012 11.1825 42.6612 11.0025 42.9912 10.6425C43.0512 10.5525 43.1262 10.5075 43.2162 10.5075C43.3512 10.5075 43.4187 10.605 43.4187 10.8C43.4187 11.34 43.2312 11.7975 42.8562 12.1725C42.4812 12.5325 42.0162 12.7125 41.4612 12.7125ZM48.4018 12.7125C47.2168 12.7125 46.2493 12.3675 45.4993 11.6775C44.6443 10.8825 44.2168 9.78751 44.2168 8.39251C44.2168 7.17751 44.5468 6.18001 45.2068 5.40001C45.9868 4.48501 47.0443 4.02751 48.3793 4.02751C49.5643 4.02751 50.5318 4.38001 51.2818 5.08501C52.1518 5.88001 52.5868 6.97501 52.5868 8.37001C52.5868 9.58501 52.2493 10.5825 51.5743 11.3625C50.8093 12.2625 49.7518 12.7125 48.4018 12.7125ZM48.3793 11.115C49.0543 11.115 49.6093 10.92 50.0443 10.53C50.5843 10.035 50.8543 9.32251 50.8543 8.39251C50.8543 7.59751 50.6443 6.94501 50.2243 6.43501C49.7593 5.89501 49.1443 5.62501 48.3793 5.62501C47.7043 5.62501 47.1493 5.83501 46.7143 6.25501C46.2043 6.76501 45.9493 7.47751 45.9493 8.39251C45.9493 9.23251 46.1668 9.90001 46.6018 10.395C47.0368 10.875 47.6293 11.115 48.3793 11.115ZM57.2337 10.35L59.0337 4.43251C59.0787 4.29751 59.1687 4.23001 59.3037 4.23001H59.5287C59.9937 4.23001 60.3387 4.32751 60.5637 4.52251C60.7887 4.71751 60.9837 5.08501 61.1487 5.62501L62.6112 10.35L64.2987 4.47751C64.3587 4.31251 64.4787 4.23001 64.6587 4.23001H65.7837C65.9187 4.23001 65.9637 4.29001 65.9187 4.41001L63.4662 12.33C63.4212 12.45 63.3387 12.51 63.2187 12.51H61.9812C61.8612 12.51 61.7787 12.45 61.7337 12.33L59.8662 6.45751L58.0437 12.33C57.9987 12.45 57.9237 12.51 57.8187 12.51H56.5362C56.4162 12.51 56.3262 12.45 56.2662 12.33L53.8362 4.41001C53.8062 4.29001 53.8512 4.23001 53.9712 4.23001H54.2637C54.7437 4.23001 55.1037 4.33501 55.3437 4.54501C55.5837 4.75501 55.7712 5.11501 55.9062 5.62501L57.2337 10.35Z" fill="white"/>
</svg>
